<svg xmlns="http://www.w3.org/2000/svg" xml:space="preserve" x="0px" y="0px" style="enable-background:new 0 0 360.183 97.406" viewBox="0 0 360.183 97.406"><path fill="#0E0E0E" d="M69.373 41.69H39.105c-.781 0-1.414.634-1.414 1.415v14.798c0 .781.633 1.417 1.414 1.417h11.807v18.385s-2.651.904-9.981.904c-8.648 0-20.728-3.16-20.728-29.723 0-26.569 12.579-30.065 24.388-30.065 10.222 0 14.626 1.8 17.429 2.667.88.269 1.695-.607 1.695-1.388l3.376-14.298c0-.366-.124-.806-.54-1.105C65.414 3.885 58.471 0 40.932 0 20.726 0 0 8.596 0 49.922c0 41.326 23.73 47.484 43.726 47.484 16.557 0 26.601-7.075 26.601-7.075.414-.229.459-.807.459-1.072V43.105c0-.781-.632-1.415-1.413-1.415zM225.356 4.951a1.41 1.41 0 0 0-1.405-1.423h-17.042c-.779 0-1.411.635-1.411 1.423l.005 32.934h-26.564V4.951c0-.787-.627-1.423-1.406-1.423H160.49c-.776 0-1.408.635-1.408 1.423v89.177a1.42 1.42 0 0 0 1.408 1.427h17.041c.779 0 1.406-.64 1.406-1.427V55.985h26.564l-.046 38.144a1.42 1.42 0 0 0 1.411 1.427h17.082c.781 0 1.405-.64 1.406-1.427V4.951z"/><g fill="#0E0E0E"><path d="M101.532 16.653c0-6.136-4.92-11.095-10.99-11.095-6.064 0-10.987 4.959-10.987 11.095 0 6.13 4.923 11.103 10.987 11.103 6.07 0 10.99-4.972 10.99-11.103zM100.313 75.317V34.152c0-.782-.631-1.421-1.41-1.421H81.915c-.779 0-1.477.804-1.477 1.585v58.976c0 1.733 1.08 2.249 2.478 2.249h15.306c1.679 0 2.091-.825 2.091-2.276V75.317z"/></g><path fill="#0E0E0E" d="M290.124 32.866h-16.912c-.776 0-1.407.639-1.407 1.426v43.726s-4.296 3.144-10.395 3.144c-6.097 0-7.716-2.767-7.716-8.738V34.292c0-.787-.63-1.426-1.406-1.426h-17.164a1.42 1.42 0 0 0-1.409 1.426v41.019c0 17.735 9.884 22.074 23.482 22.074 11.155 0 20.149-6.163 20.149-6.163s.428 3.247.622 3.633c.194.384.699.772 1.244.772l10.919-.048a1.42 1.42 0 0 0 1.409-1.424l-.005-59.863a1.42 1.42 0 0 0-1.411-1.426zM336.346 30.863c-9.605 0-16.138 4.285-16.138 4.285V4.951c0-.787-.629-1.423-1.406-1.423h-17.09c-.777 0-1.408.635-1.408 1.423v89.177a1.42 1.42 0 0 0 1.411 1.427h11.857c.534 0 .938-.275 1.237-.757.294-.479.72-4.112.72-4.112s6.988 6.623 20.218 6.623c15.531 0 24.438-7.878 24.438-35.366-.002-27.488-14.227-31.08-23.839-31.08zm-6.67 50.245c-5.866-.179-9.845-2.84-9.845-2.84V50.027s3.925-2.406 8.741-2.836c6.09-.545 11.958 1.294 11.958 15.822 0 15.319-2.648 18.342-10.854 18.095zM149.293 32.724h-12.784l-.019-16.889c0-.639-.33-.959-1.069-.959H118c-.677 0-1.041.298-1.041.949v17.452s-8.73 2.108-9.321 2.278a1.417 1.417 0 0 0-1.02 1.359v10.967c0 .789.63 1.425 1.409 1.425h8.932V75.69c0 19.597 13.746 21.521 23.021 21.521 4.238 0 9.308-1.361 10.146-1.67.506-.186.8-.71.8-1.279l.014-12.064c0-.787-.664-1.424-1.413-1.424-.745 0-2.651.303-4.613.303-6.279 0-8.407-2.919-8.407-6.699l-.001-25.073h12.784c.779 0 1.411-.636 1.411-1.425V34.145a1.41 1.41 0 0 0-1.408-1.421z"/></svg>